<svg version="1.1" xmlns="http://www.w3.org/2000/svg" viewBox="0 0 970 501" width="970" height="501">
  <!-- svg-source:excalidraw -->
  
  <defs>
    <style class="style-fonts">
      @font-face {
        font-family: "Virgil";
        src: url("https://excalidraw.com/Virgil.woff2");
      }
      @font-face {
        font-family: "Cascadia";
        src: url("https://excalidraw.com/Cascadia.woff2");
      }
    </style>
    
  </defs>
  <rect x="0" y="0" width="970" height="501" fill="#f8f9fa"></rect><g stroke-linecap="round" transform="translate(10 153) rotate(0 60 58)"><path d="M29 0 M29 0 C51.18 -1.31, 72.27 -1.63, 91 0 M29 0 C47.23 0.24, 63.03 -0.04, 91 0 M91 0 C111.74 1.83, 120.37 9.63, 120 29 M91 0 C110.89 -0.51, 120.25 7.62, 120 29 M120 29 C120.33 42.25, 120.98 56.95, 120 87 M120 29 C119.98 43.23, 119.89 56.36, 120 87 M120 87 C121.93 106.18, 112.24 115.24, 91 116 M120 87 C118.11 105.74, 109.61 114.3, 91 116 M91 116 C64.9 115.92, 42.8 117.7, 29 116 M91 116 C68.71 115.48, 44.45 115.56, 29 116 M29 116 C10.22 114.76, -0.52 107.39, 0 87 M29 116 C9.76 115.64, 0.09 107.46, 0 87 M0 87 C-1.57 73.99, 1 62.49, 0 29 M0 87 C-1.11 73.32, -0.36 58.89, 0 29 M0 29 C1.76 8.96, 7.88 -0.51, 29 0 M0 29 C-0.68 9.23, 10.47 -1.82, 29 0" stroke="#1e1e1e" stroke-width="1" fill="none"></path></g><g stroke-linecap="round" transform="translate(346 10) rotate(0 60 58)"><path d="M29 0 M29 0 C47.37 0.99, 68.34 -1.17, 91 0 M29 0 C41.86 0.53, 54.31 -0.66, 91 0 M91 0 C110.03 1.33, 120.43 9.41, 120 29 M91 0 C108.86 0.45, 122.04 8.51, 120 29 M120 29 C121.39 52.51, 120.95 76.25, 120 87 M120 29 C120.86 40.03, 119.32 52.85, 120 87 M120 87 C118.67 108.12, 109.21 117.9, 91 116 M120 87 C122.16 107.86, 109.47 117.63, 91 116 M91 116 C74.63 114.73, 55.82 116.01, 29 116 M91 116 C66.55 116.77, 42.53 116.73, 29 116 M29 116 C11.46 116.23, -0.29 105.59, 0 87 M29 116 C11.72 116.61, -0.03 105.23, 0 87 M0 87 C0.42 71.18, 1.21 56.41, 0 29 M0 87 C0.18 71.46, 0.43 55.52, 0 29 M0 29 C0.63 10.59, 9.56 0.66, 29 0 M0 29 C0.91 9.06, 9.28 2.27, 29 0" stroke="#1e1e1e" stroke-width="1" fill="none"></path></g><g stroke-linecap="round" transform="translate(840 375) rotate(0 60 58)"><path d="M29 0 M29 0 C54.92 0.33, 79.05 1.08, 91 0 M29 0 C42.55 -1.06, 53.62 -0.04, 91 0 M91 0 C109.01 1.78, 118.88 11.57, 120 29 M91 0 C112.49 1.53, 119.14 11.3, 120 29 M120 29 C121.44 43.95, 120.33 61.79, 120 87 M120 29 C119.54 52.67, 120.05 75.58, 120 87 M120 87 C121.79 106.57, 110.05 115.25, 91 116 M120 87 C122.06 106.95, 110.31 114.9, 91 116 M91 116 C74.38 115.19, 58.52 115.98, 29 116 M91 116 C73.67 116.14, 56.96 116.07, 29 116 M29 116 C10.3 116.92, -0.11 106.99, 0 87 M29 116 C10.58 115.4, -0.38 108.6, 0 87 M0 87 C0.31 64.28, -1.81 41.81, 0 29 M0 87 C0.09 72.45, 0.46 56.17, 0 29 M0 29 C1.9 8.61, 9.16 1.84, 29 0 M0 29 C0.39 7.96, 10.99 -0.93, 29 0" stroke="#1e1e1e" stroke-width="1" fill="none"></path></g><g stroke-linecap="round" transform="translate(683 374) rotate(0 60 58)"><path d="M29 0 M29 0 C48.65 -0.14, 70.26 0.37, 91 0 M29 0 C49.23 0.04, 69.96 -0.55, 91 0 M91 0 C110 1.97, 121.98 11.29, 120 29 M91 0 C108.42 0.9, 120.5 8.12, 120 29 M120 29 C119.66 48.88, 121.8 70.26, 120 87 M120 29 C120.3 48.72, 120.72 65.85, 120 87 M120 87 C121.15 105.53, 110.1 114.98, 91 116 M120 87 C119.02 108.44, 109.64 116.71, 91 116 M91 116 C68.78 115.22, 41.23 114.3, 29 116 M91 116 C77.77 116.79, 63.31 116.53, 29 116 M29 116 C8.05 114.55, 0.04 105.49, 0 87 M29 116 C11.2 116.33, -1.47 106.81, 0 87 M0 87 C0.25 65.38, 0.95 43.68, 0 29 M0 87 C0.99 73, -0.21 58.5, 0 29 M0 29 C0.45 8.46, 10.94 1.53, 29 0 M0 29 C0.82 9.81, 9.23 -1.54, 29 0" stroke="#1e1e1e" stroke-width="1" fill="none"></path></g><g stroke-linecap="round" transform="translate(10 20) rotate(0 60 58)"><path d="M29 0 M29 0 C52.65 -0.14, 77.29 -2.08, 91 0 M29 0 C46.23 -0.45, 63.8 0.48, 91 0 M91 0 C109.79 -0.99, 120.22 8.11, 120 29 M91 0 C108.05 -1.21, 120.51 11.8, 120 29 M120 29 C121.06 47.26, 120.02 64.59, 120 87 M120 29 C118.99 43.66, 119.9 58.03, 120 87 M120 87 C120.42 104.57, 109.98 115.82, 91 116 M120 87 C121.47 107.97, 111.8 113.7, 91 116 M91 116 C70.54 116.53, 49.83 116.13, 29 116 M91 116 C71.07 116.07, 52.83 115.16, 29 116 M29 116 C11.03 115.44, -1.32 107.33, 0 87 M29 116 C9.53 115.29, 1.51 105.42, 0 87 M0 87 C1.34 67.58, -2.21 49.16, 0 29 M0 87 C0.16 71.37, -0.32 55.83, 0 29 M0 29 C0.99 11.4, 11.05 1.7, 29 0 M0 29 C-0.83 11.04, 8.97 -1.78, 29 0" stroke="#1e1e1e" stroke-width="1" fill="none"></path></g><g transform="translate(46 20) rotate(0 23.674999237060547 48.48949251324416)"><text x="0" y="0" font-family="Cascadia, Segoe UI Emoji" font-size="80.81582085540691px" fill="#1e1e1e" text-anchor="start" style="white-space: pre;" direction="ltr" dominant-baseline="text-before-edge">e</text></g><g transform="translate(48.32500076293945 154.51050748675584) rotate(0 23.674999237060547 48.489492513244144)"><text x="0" y="0" font-family="Cascadia, Segoe UI Emoji" font-size="80.81582085540691px" fill="#1e1e1e" text-anchor="start" style="white-space: pre;" direction="ltr" dominant-baseline="text-before-edge">z</text></g><g transform="translate(719.3250007629395 377.51050748675584) rotate(0 23.674999237060547 48.489492513244144)"><text x="0" y="0" font-family="Cascadia, Segoe UI Emoji" font-size="80.81582085540691px" fill="#1e1e1e" text-anchor="start" style="white-space: pre;" direction="ltr" dominant-baseline="text-before-edge">e</text></g><g transform="translate(382.32500076293945 15.510507486755841) rotate(0 23.674999237060547 48.48949251324416)"><text x="0" y="0" font-family="Cascadia, Segoe UI Emoji" font-size="80.81582085540691px" fill="#1e1e1e" text-anchor="start" style="white-space: pre;" direction="ltr" dominant-baseline="text-before-edge">v</text></g><g transform="translate(876.3250007629395 380.51050748675584) rotate(0 23.674999237060547 48.489492513244144)"><text x="0" y="0" font-family="Cascadia, Segoe UI Emoji" font-size="80.81582085540691px" fill="#1e1e1e" text-anchor="start" style="white-space: pre;" direction="ltr" dominant-baseline="text-before-edge">l</text></g><g transform="translate(807 14) rotate(0 73.8499984741211 21.599999999999994)"><text x="0" y="0" font-family="Cascadia, Segoe UI Emoji" font-size="36px" fill="#1e1e1e" text-anchor="start" style="white-space: pre;" direction="ltr" dominant-baseline="text-before-edge">&lt;files&gt;</text></g><g stroke-linecap="round"><g transform="translate(144 379) rotate(0 18.270437073195353 -16.058857772541238)"><path d="M0.58 0.49 C6.49 -4.44, 28.9 -25.31, 34.95 -30.66 M-0.57 -0.29 C5.73 -5.5, 30.91 -27.56, 37.11 -32.61" stroke="#1e1e1e" stroke-width="4" fill="none"></path></g></g><mask></mask><g stroke-linecap="round"><g transform="translate(143 378) rotate(0 19.099346272167736 14.543903809445915)"><path d="M-0.18 1.1 C6.6 5.97, 33.25 23.87, 39.93 28.46 M-1.73 0.63 C4.95 5.2, 32.14 22.25, 38.95 26.58" stroke="#1e1e1e" stroke-width="4" fill="none"></path></g></g><mask></mask><g stroke-linecap="round"><g transform="translate(220.78547653796227 407.12370513285066) rotate(182.14056927191294 18.56588052373843 -15.802129244804377)"><path d="M0.99 -0.44 C7.18 -5.8, 31.19 -26.25, 37.09 -31.16 M0.04 -1.72 C6.18 -6.37, 30.76 -24.72, 36.71 -29.71" stroke="#1e1e1e" stroke-width="4" fill="none"></path></g></g><mask></mask><g stroke-linecap="round"><g transform="translate(219.43981541846745 348.7152045188361) rotate(182.14056927191294 20.27496859174687 13.898892213362274)"><path d="M1.09 -0.16 C7.65 4.76, 33.94 24.28, 40.35 29.09 M0.2 -1.29 C6.55 3.36, 33.19 22.88, 39.59 27.54" stroke="#1e1e1e" stroke-width="4" fill="none"></path></g></g><mask></mask></svg>